<?xml version="1.0" encoding="utf-8"?>
<!-- Generator: Adobe Illustrator 18.0.0, SVG Export Plug-In . SVG Version: 6.00 Build 0)  -->
<!DOCTYPE svg PUBLIC "-//W3C//DTD SVG 1.1//EN" "http://www.w3.org/Graphics/SVG/1.1/DTD/svg11.dtd">
<svg version="1.1" id="Layer_1" xmlns="http://www.w3.org/2000/svg" xmlns:xlink="http://www.w3.org/1999/xlink" x="0px" y="0px"
	 viewBox="0 0 218 152.6" enable-background="new 0 0 218 152.6" xml:space="preserve">
<path fill="#666666" d="M169,143.5H8H0c0,0,0,1.3,0,3v3.1c0,1.7,1.3,2.9,3,2.9h5h161h22.4c1.7,0,3.6-1.1,3.6-2.9v-3.1c0-1.7,0-3,0-3
	H169z"/>
<line fill="none" stroke="#9E9E9E" stroke-width="3" stroke-miterlimit="10" x1="75.5" y1="148.3" x2="118.9" y2="148.3"/>
<g>
	<path fill="#666666" d="M174.3,142.4H19.9c-2.6,0-4.3-2-4.3-4.5V41.1c0-2.6,1.7-4.4,4.3-4.4h154.3c2.6,0,4.6,1.9,4.6,4.4v96.7
		C178.8,137.9,178.9,142.4,174.3,142.4z"/>
	<rect x="21.1" y="42.2" fill="#F0F0F0" width="153.7" height="94.6"/>
	<rect x="55.8" y="43" fill="#FFFFFF" width="84.4" height="93.8"/>
	<line fill="none" stroke="#9E9E9E" stroke-width="2" stroke-miterlimit="10" x1="66.8" y1="59.6" x2="129.1" y2="59.6"/>
	<line fill="none" stroke="#9E9E9E" stroke-width="2" stroke-miterlimit="10" x1="66.8" y1="65.1" x2="108.6" y2="65.1"/>
	<line fill="none" stroke="#9E9E9E" stroke-width="2" stroke-miterlimit="10" x1="90.5" y1="76.1" x2="100.7" y2="76.1"/>
	<line fill="none" stroke="#9E9E9E" stroke-width="2" stroke-miterlimit="10" x1="81.8" y1="81.7" x2="108.6" y2="81.7"/>
	<line fill="none" stroke="#9E9E9E" stroke-width="2" stroke-miterlimit="10" x1="81.8" y1="87.2" x2="92.8" y2="87.2"/>
	<line fill="none" stroke="#9E9E9E" stroke-width="2" stroke-miterlimit="10" x1="66.8" y1="98.2" x2="129.1" y2="98.2"/>
	<line fill="none" stroke="#9E9E9E" stroke-width="2" stroke-miterlimit="10" x1="66.8" y1="103.7" x2="108.6" y2="103.7"/>
	<line fill="none" stroke="#9E9E9E" stroke-width="2" stroke-miterlimit="10" x1="90.5" y1="114.8" x2="100.7" y2="114.8"/>
	<line fill="none" stroke="#9E9E9E" stroke-width="2" stroke-miterlimit="10" x1="81.8" y1="120.3" x2="108.6" y2="120.3"/>
	<line fill="none" stroke="#9E9E9E" stroke-width="2" stroke-miterlimit="10" x1="81.8" y1="125.8" x2="92.8" y2="125.8"/>
	<line fill="none" stroke="#9E9E9E" stroke-miterlimit="10" x1="152.8" y1="78.9" x2="170.9" y2="78.9"/>
	<line fill="none" stroke="#9E9E9E" stroke-miterlimit="10" x1="157.5" y1="82.8" x2="170.9" y2="82.8"/>
	<line fill="none" stroke="#9E9E9E" stroke-miterlimit="10" x1="155.9" y1="86.8" x2="170.9" y2="86.8"/>
	<line fill="none" stroke="#9E9E9E" stroke-miterlimit="10" x1="157.5" y1="90.7" x2="170.9" y2="90.7"/>
	<line fill="none" stroke="#9E9E9E" stroke-miterlimit="10" x1="157.5" y1="94.7" x2="170.9" y2="94.7"/>
	<line fill="none" stroke="#9E9E9E" stroke-miterlimit="10" x1="155.9" y1="98.6" x2="170.9" y2="98.6"/>
	<rect x="21.1" y="42.2" fill="#999999" width="153.7" height="7.9"/>
	<line fill="none" stroke="#E8E8E8" stroke-miterlimit="10" x1="155.9" y1="46.6" x2="170.1" y2="46.6"/>
	<line fill="none" stroke="#E8E8E8" stroke-miterlimit="10" x1="24.3" y1="46.6" x2="55" y2="46.6"/>
	<circle fill="#E8E8E8" cx="62.2" cy="46.8" r="1.1"/>
	<circle fill="#E8E8E8" cx="67.6" cy="46.8" r="1.1"/>
</g>
<g>
	<g>
		<path fill="#E9E9E9" d="M170.6,73.7c-4.1-4-9.4-6.2-15.1-6.2c-5.7,0-11,2.2-15.1,6.2l-0.7,0.7l-10-10l0.7-0.7
			c6.8-6.6,15.7-10.3,25.1-10.3s18.4,3.7,25.1,10.3l0.7,0.7l-10,10L170.6,73.7z"/>
		<path fill="#FFFFFF" d="M155.5,54.3c9.5,0,18.1,3.8,24.4,10l-8.6,8.6c-4.1-4-9.7-6.4-15.8-6.4c-6.1,0-11.7,2.5-15.8,6.4l-8.6-8.6
			C137.4,58.1,146,54.3,155.5,54.3 M155.5,52.3c-9.7,0-18.9,3.8-25.8,10.6l-1.4,1.4l1.4,1.4l8.6,8.6l1.4,1.4l1.4-1.4
			c3.9-3.8,9-5.9,14.4-5.9c5.4,0,10.5,2.1,14.4,5.9l1.4,1.4l1.4-1.4l8.6-8.6l1.4-1.4l-1.4-1.4C174.3,56.1,165.2,52.3,155.5,52.3
			L155.5,52.3z"/>
	</g>
	<g>
		<path fill="#E9E9E9" d="M145.8,80.4l0.7-0.7c2.4-2.3,5.6-3.6,9-3.6s6.5,1.3,9,3.6l0.7,0.7l-9.7,9.7L145.8,80.4z"/>
		<path fill="#FFFFFF" d="M155.5,77.1c3.2,0,6.1,1.3,8.3,3.3l-8.3,8.3l-8.3-8.3C149.4,78.4,152.3,77.1,155.5,77.1 M155.5,75.1
			c-3.6,0-7,1.4-9.7,3.9l-1.5,1.4l1.4,1.4l8.3,8.3l1.4,1.4l1.4-1.4l8.3-8.3l1.4-1.4l-1.5-1.4C162.5,76.5,159.1,75.1,155.5,75.1
			L155.5,75.1z"/>
	</g>
	<g>
		<path fill="#E9E9E9" d="M95.6,30.3l0.7-0.7c15.8-15.7,36.8-24.4,59.1-24.4s43.3,8.7,59.1,24.4l0.7,0.7l-10,10l-0.7-0.7
			c-13.2-13.1-30.6-20.3-49.1-20.3s-35.9,7.2-49.1,20.3l-0.7,0.7L95.6,30.3z"/>
		<path fill="#FFFFFF" d="M155.5,6.2c22.1,0,42.8,8.6,58.4,24.1l-8.6,8.6c-12.8-12.7-30.4-20.5-49.8-20.5c-19.4,0-37,7.9-49.8,20.5
			L97,30.3C112.7,14.8,133.4,6.2,155.5,6.2 M155.5,4.2c-22.6,0-43.8,8.8-59.8,24.7l-1.4,1.4l1.4,1.4l8.6,8.6l1.4,1.4l1.4-1.4
			c13-12.9,30.2-20,48.4-20c18.2,0,35.4,7.1,48.4,20l1.4,1.4l1.4-1.4l8.6-8.6l1.4-1.4l-1.4-1.4C199.3,13,178.1,4.2,155.5,4.2
			L155.5,4.2z"/>
	</g>
	<g>
		<path fill="#E9E9E9" d="M187.2,57c-8.5-8.4-19.8-13-31.7-13s-23.2,4.6-31.7,13l-0.7,0.7l-10-10l0.7-0.7
			c11.2-11.1,26-17.2,41.7-17.2S186,35.9,197.2,47l0.7,0.7l-10,10L187.2,57z"/>
		<path fill="#FFFFFF" d="M155.5,30.8c16,0,30.5,6.5,41,16.9l-8.6,8.6c-8.3-8.2-19.8-13.3-32.4-13.3c-12.6,0-24.1,5.1-32.4,13.3
			l-8.6-8.6C125,37.3,139.5,30.8,155.5,30.8 M155.5,28.8c-16,0-31,6.2-42.4,17.5l-1.4,1.4l1.4,1.4l8.6,8.6l1.4,1.4l1.4-1.4
			c8.3-8.2,19.3-12.8,31-12.8c11.7,0,22.7,4.5,31,12.8l1.4,1.4l1.4-1.4l8.6-8.6l1.4-1.4l-1.4-1.4C186.5,35,171.5,28.8,155.5,28.8
			L155.5,28.8z"/>
	</g>
</g>
<line fill="none" stroke="#05A0DD" stroke-width="7" stroke-miterlimit="10" x1="115.7" y1="2.6" x2="195.2" y2="82.2"/>
</svg>
